<svg width="51" height="51" viewBox="0 0 51 51" fill="none" xmlns="http://www.w3.org/2000/svg">
<path d="M15.5 48H5.5C4.83696 48 4.20107 47.7366 3.73223 47.2678C3.26339 46.7989 3 46.163 3 45.5V5.5C3 4.83696 3.26339 4.20107 3.73223 3.73223C4.20107 3.26339 4.83696 3 5.5 3H35.5C36.163 3 36.7989 3.26339 37.2678 3.73223C37.7366 4.20107 38 4.83696 38 5.5V15.5" stroke="black" stroke-width="5" stroke-linecap="round" stroke-linejoin="round"/>
<path d="M20.5 25.5V15.5M25.5 20.5H15.5M40.8 40.8L32.7 32.7M37.325 27.325C38.504 26.1616 40.0937 25.5093 41.75 25.5093C43.4063 25.5093 44.996 26.1616 46.175 27.325C47.3384 28.504 47.9907 30.0937 47.9907 31.75C47.9907 33.4063 47.3384 34.996 46.175 36.175L36.175 46.175C34.996 47.3384 33.4063 47.9907 31.75 47.9907C30.0937 47.9907 28.504 47.3384 27.325 46.175C26.1616 44.996 25.5093 43.4063 25.5093 41.75C25.5093 40.0937 26.1616 38.504 27.325 37.325L37.325 27.325Z" stroke="#F25465" stroke-width="5" stroke-linecap="round" stroke-linejoin="round"/>
</svg>
